<mxfile host="app.diagrams.net" agent="Mozilla/5.0 (Windows NT 10.0; Win64; x64) AppleWebKit/537.36 (KHTML, like Gecko) Chrome/129.0.0.0 Safari/537.36 Edg/129.0.0.0" version="24.7.16">
  <diagram name="Страница — 1" id="4PMwJfuNJINCbgvC3-bv">
    <mxGraphModel dx="1786" dy="801" grid="0" gridSize="10" guides="1" tooltips="1" connect="1" arrows="1" fold="1" page="0" pageScale="1" pageWidth="827" pageHeight="1169" math="0" shadow="0">
      <root>
        <mxCell id="0" />
        <mxCell id="1" parent="0" />
        <mxCell id="x0k5gH0Nw8ffxxPFSG0G-2" value="" style="rounded=0;whiteSpace=wrap;html=1;" parent="1" vertex="1">
          <mxGeometry x="30" y="169" width="760" height="506" as="geometry" />
        </mxCell>
        <mxCell id="x0k5gH0Nw8ffxxPFSG0G-1" value="Работник склада" style="shape=umlActor;verticalLabelPosition=bottom;verticalAlign=top;html=1;outlineConnect=0;" parent="1" vertex="1">
          <mxGeometry x="-59" y="381" width="30" height="60" as="geometry" />
        </mxCell>
        <mxCell id="x0k5gH0Nw8ffxxPFSG0G-3" value="Бухгалтер&lt;div&gt;&lt;br&gt;&lt;/div&gt;" style="shape=umlActor;verticalLabelPosition=bottom;verticalAlign=top;html=1;outlineConnect=0;" parent="1" vertex="1">
          <mxGeometry x="878" y="358" width="30" height="60" as="geometry" />
        </mxCell>
        <mxCell id="x0k5gH0Nw8ffxxPFSG0G-4" value="ИС Учет товара" style="text;html=1;align=center;verticalAlign=middle;whiteSpace=wrap;rounded=0;" parent="1" vertex="1">
          <mxGeometry x="26" y="177" width="110" height="30" as="geometry" />
        </mxCell>
        <mxCell id="x0k5gH0Nw8ffxxPFSG0G-10" value="Ввод данных о поступление на склад" style="ellipse;whiteSpace=wrap;html=1;" parent="1" vertex="1">
          <mxGeometry x="47" y="437" width="120" height="60" as="geometry" />
        </mxCell>
        <mxCell id="x0k5gH0Nw8ffxxPFSG0G-11" value="" style="endArrow=none;html=1;rounded=0;entryX=0;entryY=0.5;entryDx=0;entryDy=0;exitX=0.5;exitY=0.5;exitDx=0;exitDy=0;exitPerimeter=0;" parent="1" source="x0k5gH0Nw8ffxxPFSG0G-1" target="x0k5gH0Nw8ffxxPFSG0G-10" edge="1">
          <mxGeometry width="50" height="50" relative="1" as="geometry">
            <mxPoint x="155" y="410" as="sourcePoint" />
            <mxPoint x="393" y="196" as="targetPoint" />
          </mxGeometry>
        </mxCell>
        <mxCell id="x0k5gH0Nw8ffxxPFSG0G-12" value="Ввод данных о продаже" style="ellipse;whiteSpace=wrap;html=1;" parent="1" vertex="1">
          <mxGeometry x="554" y="330" width="120" height="60" as="geometry" />
        </mxCell>
        <mxCell id="x0k5gH0Nw8ffxxPFSG0G-13" value="" style="endArrow=none;html=1;rounded=0;entryX=1;entryY=0.5;entryDx=0;entryDy=0;exitX=0.5;exitY=0.5;exitDx=0;exitDy=0;exitPerimeter=0;" parent="1" source="x0k5gH0Nw8ffxxPFSG0G-3" target="x0k5gH0Nw8ffxxPFSG0G-12" edge="1">
          <mxGeometry width="50" height="50" relative="1" as="geometry">
            <mxPoint x="155" y="410" as="sourcePoint" />
            <mxPoint x="240" y="370" as="targetPoint" />
          </mxGeometry>
        </mxCell>
        <mxCell id="x0k5gH0Nw8ffxxPFSG0G-14" value="Ведение отчетности о остатках товара" style="ellipse;whiteSpace=wrap;html=1;" parent="1" vertex="1">
          <mxGeometry x="598" y="435" width="120" height="60" as="geometry" />
        </mxCell>
        <mxCell id="x0k5gH0Nw8ffxxPFSG0G-15" value="" style="endArrow=none;html=1;rounded=0;entryX=1;entryY=0.5;entryDx=0;entryDy=0;exitX=0.5;exitY=0.5;exitDx=0;exitDy=0;exitPerimeter=0;" parent="1" source="x0k5gH0Nw8ffxxPFSG0G-3" target="x0k5gH0Nw8ffxxPFSG0G-14" edge="1">
          <mxGeometry width="50" height="50" relative="1" as="geometry">
            <mxPoint x="665" y="410" as="sourcePoint" />
            <mxPoint x="580" y="370" as="targetPoint" />
          </mxGeometry>
        </mxCell>
        <mxCell id="x0k5gH0Nw8ffxxPFSG0G-16" value="Ввод количества&amp;nbsp;" style="ellipse;whiteSpace=wrap;html=1;" parent="1" vertex="1">
          <mxGeometry x="184" y="509" width="120" height="60" as="geometry" />
        </mxCell>
        <mxCell id="x0k5gH0Nw8ffxxPFSG0G-17" value="Ввод номенклатуры" style="ellipse;whiteSpace=wrap;html=1;" parent="1" vertex="1">
          <mxGeometry x="376" y="284" width="120" height="60" as="geometry" />
        </mxCell>
        <mxCell id="x0k5gH0Nw8ffxxPFSG0G-18" value="Ввод номенклатуры" style="ellipse;whiteSpace=wrap;html=1;" parent="1" vertex="1">
          <mxGeometry x="218" y="411" width="120" height="60" as="geometry" />
        </mxCell>
        <mxCell id="x0k5gH0Nw8ffxxPFSG0G-19" value="Ввод количества&amp;nbsp;" style="ellipse;whiteSpace=wrap;html=1;" parent="1" vertex="1">
          <mxGeometry x="406" y="392" width="120" height="60" as="geometry" />
        </mxCell>
        <mxCell id="x0k5gH0Nw8ffxxPFSG0G-21" value="" style="endArrow=none;dashed=1;html=1;rounded=0;entryX=0;entryY=1;entryDx=0;entryDy=0;exitX=1;exitY=0;exitDx=0;exitDy=0;" parent="1" source="x0k5gH0Nw8ffxxPFSG0G-19" target="x0k5gH0Nw8ffxxPFSG0G-12" edge="1">
          <mxGeometry width="50" height="50" relative="1" as="geometry">
            <mxPoint x="387" y="451" as="sourcePoint" />
            <mxPoint x="437" y="401" as="targetPoint" />
          </mxGeometry>
        </mxCell>
        <mxCell id="x0k5gH0Nw8ffxxPFSG0G-22" value="" style="endArrow=none;dashed=1;html=1;rounded=0;entryX=0;entryY=0;entryDx=0;entryDy=0;exitX=1;exitY=0.5;exitDx=0;exitDy=0;" parent="1" source="x0k5gH0Nw8ffxxPFSG0G-17" target="x0k5gH0Nw8ffxxPFSG0G-12" edge="1">
          <mxGeometry width="50" height="50" relative="1" as="geometry">
            <mxPoint x="518" y="411" as="sourcePoint" />
            <mxPoint x="564" y="370" as="targetPoint" />
          </mxGeometry>
        </mxCell>
        <mxCell id="x0k5gH0Nw8ffxxPFSG0G-23" value="" style="endArrow=none;dashed=1;html=1;rounded=0;entryX=0;entryY=1;entryDx=0;entryDy=0;exitX=1;exitY=0.5;exitDx=0;exitDy=0;" parent="1" source="x0k5gH0Nw8ffxxPFSG0G-10" target="x0k5gH0Nw8ffxxPFSG0G-18" edge="1">
          <mxGeometry width="50" height="50" relative="1" as="geometry">
            <mxPoint x="506" y="324" as="sourcePoint" />
            <mxPoint x="582" y="349" as="targetPoint" />
          </mxGeometry>
        </mxCell>
        <mxCell id="x0k5gH0Nw8ffxxPFSG0G-24" value="" style="endArrow=none;dashed=1;html=1;rounded=0;entryX=0;entryY=0;entryDx=0;entryDy=0;exitX=1;exitY=1;exitDx=0;exitDy=0;" parent="1" source="x0k5gH0Nw8ffxxPFSG0G-10" target="x0k5gH0Nw8ffxxPFSG0G-16" edge="1">
          <mxGeometry width="50" height="50" relative="1" as="geometry">
            <mxPoint x="234" y="504" as="sourcePoint" />
            <mxPoint x="277" y="490" as="targetPoint" />
          </mxGeometry>
        </mxCell>
        <mxCell id="x0k5gH0Nw8ffxxPFSG0G-25" value="include" style="text;html=1;align=center;verticalAlign=middle;whiteSpace=wrap;rounded=0;" parent="1" vertex="1">
          <mxGeometry x="162" y="435" width="60" height="30" as="geometry" />
        </mxCell>
        <mxCell id="x0k5gH0Nw8ffxxPFSG0G-26" value="include" style="text;html=1;align=center;verticalAlign=middle;whiteSpace=wrap;rounded=0;" parent="1" vertex="1">
          <mxGeometry x="194" y="477" width="60" height="30" as="geometry" />
        </mxCell>
        <mxCell id="x0k5gH0Nw8ffxxPFSG0G-27" value="include" style="text;html=1;align=center;verticalAlign=middle;whiteSpace=wrap;rounded=0;" parent="1" vertex="1">
          <mxGeometry x="506" y="297" width="60" height="30" as="geometry" />
        </mxCell>
        <mxCell id="x0k5gH0Nw8ffxxPFSG0G-28" value="include" style="text;html=1;align=center;verticalAlign=middle;whiteSpace=wrap;rounded=0;" parent="1" vertex="1">
          <mxGeometry x="498" y="367" width="60" height="30" as="geometry" />
        </mxCell>
        <mxCell id="x0k5gH0Nw8ffxxPFSG0G-29" value="Формирование отчета" style="ellipse;whiteSpace=wrap;html=1;" parent="1" vertex="1">
          <mxGeometry x="438" y="500" width="120" height="60" as="geometry" />
        </mxCell>
        <mxCell id="x0k5gH0Nw8ffxxPFSG0G-30" value="" style="endArrow=none;dashed=1;html=1;rounded=0;entryX=1;entryY=0;entryDx=0;entryDy=0;exitX=0;exitY=1;exitDx=0;exitDy=0;" parent="1" source="x0k5gH0Nw8ffxxPFSG0G-14" target="x0k5gH0Nw8ffxxPFSG0G-29" edge="1">
          <mxGeometry width="50" height="50" relative="1" as="geometry">
            <mxPoint x="216" y="525" as="sourcePoint" />
            <mxPoint x="274" y="570" as="targetPoint" />
          </mxGeometry>
        </mxCell>
        <mxCell id="x0k5gH0Nw8ffxxPFSG0G-31" value="include" style="text;html=1;align=center;verticalAlign=middle;whiteSpace=wrap;rounded=0;" parent="1" vertex="1">
          <mxGeometry x="542" y="467" width="60" height="30" as="geometry" />
        </mxCell>
        <mxCell id="8ZZqN-6uONYHfhjIX4yS-1" value="" style="endArrow=none;dashed=1;html=1;rounded=0;exitX=1;exitY=0.5;exitDx=0;exitDy=0;entryX=0;entryY=0;entryDx=0;entryDy=0;" parent="1" source="x0k5gH0Nw8ffxxPFSG0G-18" target="x0k5gH0Nw8ffxxPFSG0G-29" edge="1">
          <mxGeometry width="50" height="50" relative="1" as="geometry">
            <mxPoint x="390" y="441" as="sourcePoint" />
            <mxPoint x="440" y="391" as="targetPoint" />
          </mxGeometry>
        </mxCell>
        <mxCell id="8ZZqN-6uONYHfhjIX4yS-2" value="" style="endArrow=none;dashed=1;html=1;rounded=0;exitX=1;exitY=0.5;exitDx=0;exitDy=0;entryX=0;entryY=0.5;entryDx=0;entryDy=0;" parent="1" source="x0k5gH0Nw8ffxxPFSG0G-16" target="x0k5gH0Nw8ffxxPFSG0G-29" edge="1">
          <mxGeometry width="50" height="50" relative="1" as="geometry">
            <mxPoint x="348" y="451" as="sourcePoint" />
            <mxPoint x="466" y="519" as="targetPoint" />
          </mxGeometry>
        </mxCell>
        <mxCell id="8ZZqN-6uONYHfhjIX4yS-3" value="extend" style="text;html=1;align=center;verticalAlign=middle;whiteSpace=wrap;rounded=0;" parent="1" vertex="1">
          <mxGeometry x="319" y="512" width="60" height="30" as="geometry" />
        </mxCell>
        <mxCell id="8ZZqN-6uONYHfhjIX4yS-4" value="extend" style="text;html=1;align=center;verticalAlign=middle;whiteSpace=wrap;rounded=0;" parent="1" vertex="1">
          <mxGeometry x="349" y="467" width="60" height="30" as="geometry" />
        </mxCell>
      </root>
    </mxGraphModel>
  </diagram>
</mxfile>
